<?xml version="1.0"?>
<svg xmlns="http://www.w3.org/2000/svg" viewBox="0 0 240 240" fill="none">

  
  <line x1="20" y1="30" x2="220" y2="30" stroke="#A08670" stroke-width="1.4"></line>
  
  <line x1="85" y1="30" x2="85" y2="58" stroke="#A08670" stroke-width="1.4"></line>
  <rect x="76" y="58" width="18" height="12" fill="#FFF8F0" stroke="#A08670" stroke-width="1.4"></rect>
  <line x1="78" y1="62" x2="92" y2="62" stroke="#A08670" stroke-width="0.8"></line>
  <line x1="78" y1="66" x2="92" y2="66" stroke="#A08670" stroke-width="0.8"></line>
  <path d="M76 70 Q60 90 70 120 Q80 150 110 150 Q140 150 90 120 L75 100 Q72 88 76 70 Z" fill="#F4A896" stroke="#A08670" stroke-width="1.5" stroke-linejoin="round"></path>
  <path d="M76 70 Q66 95 78 130 Q90 150 100 150 Q108 148 100 130 Q86 100 94 70 Z" fill="#F4A896" stroke="#A08670" stroke-width="1.5" stroke-linejoin="round"></path>
  
  <path d="M82 86 Q85 92 88 86" stroke="#5C4030" stroke-width="1" fill="none"></path>
  <path d="M82 86 L78 80" stroke="#5C4030" stroke-width="1"></path>
  <path d="M88 86 L92 80" stroke="#5C4030" stroke-width="1"></path>
  
  <line x1="85" y1="108" x2="52.86061951567304" y2="176.3022221559489" stroke="#F4A896" stroke-width="1.2" stroke-linecap="round" opacity="0.45"></line><line x1="85" y1="108" x2="67.89899283371656" y2="184.98463103929544" stroke="#F4A896" stroke-width="1.2" stroke-linecap="round" opacity="0.45"></line><line x1="85" y1="108" x2="85" y2="188" stroke="#F4A896" stroke-width="1.2" stroke-linecap="round" opacity="0.45"></line><line x1="85" y1="108" x2="102.10100716628344" y2="184.98463103929544" stroke="#F4A896" stroke-width="1.2" stroke-linecap="round" opacity="0.45"></line><line x1="85" y1="108" x2="117.13938048432696" y2="176.3022221559489" stroke="#F4A896" stroke-width="1.2" stroke-linecap="round" opacity="0.45"></line>
  
  <line x1="155" y1="30" x2="155" y2="58" stroke="#A08670" stroke-width="1.4"></line>
  <rect x="146" y="58" width="18" height="12" fill="#FFF8F0" stroke="#A08670" stroke-width="1.4"></rect>
  <line x1="148" y1="62" x2="162" y2="62" stroke="#A08670" stroke-width="0.8"></line>
  <line x1="148" y1="66" x2="162" y2="66" stroke="#A08670" stroke-width="0.8"></line>
  <path d="M146 70 Q130 95 142 130 Q155 158 168 130 Q180 95 164 70 Z" fill="#FFF8F0" stroke="#A08670" stroke-width="1.5" stroke-linejoin="round"></path>
  
  <path d="M152 86 L150 92" stroke="#A08670" stroke-width="1"></path>
  <path d="M158 86 L160 92" stroke="#A08670" stroke-width="1"></path>
  <line x1="148" y1="80" x2="152" y2="86" stroke="#A08670" stroke-width="1"></line>
  <line x1="162" y1="80" x2="158" y2="86" stroke="#A08670" stroke-width="1"></line>

</svg>