<?xml version="1.0"?>
<svg xmlns="http://www.w3.org/2000/svg" viewBox="0 0 240 240" fill="none">

  
  <line x1="0" y1="200" x2="240" y2="200" stroke="#A08670" stroke-width="1" stroke-dasharray="2 3" opacity="0.5"></line>
  
  <path d="M50 130 Q60 200 120 200 Q180 200 190 130" fill="#FFF8F0" stroke="#5C4030" stroke-width="1.8" stroke-linejoin="round"></path>
  
  <ellipse cx="120" cy="130" rx="70" ry="10" fill="#FFF8F0" stroke="#5C4030" stroke-width="1.8"></ellipse>
  
  <ellipse cx="120" cy="130" rx="62" ry="6" fill="#FBF3EC" stroke="#A08670" stroke-width="0.8" opacity="0.7"></ellipse>
  
  <path d="M90 130 L98 150 L92 168 L100 180 L96 195" stroke="#A08670" stroke-width="1.4" fill="none" stroke-linecap="round"></path>
  
  <path d="M90 130 L98 150 L92 168 L100 180 L96 195" stroke="#F4A896" stroke-width="2.2" fill="none" stroke-linecap="round" opacity="0.65"></path>
  
  <path d="M140 145 L148 158 L142 175" stroke="#A08670" stroke-width="1.2" fill="none" stroke-linecap="round" opacity="0.7"></path>
  
  <path d="M76 128 L72 122 L82 124 Z" fill="#FBF3EC" stroke="#A08670" stroke-width="1.2" stroke-linejoin="round"></path>
  
  
    <line x1="88" y1="154" x2="100" y2="151" stroke="#5C4030" stroke-width="1.2" stroke-linecap="round"></line>
  
    <line x1="88" y1="174" x2="100" y2="171" stroke="#5C4030" stroke-width="1.2" stroke-linecap="round"></line>
  

</svg>