<svg xmlns="http://www.w3.org/2000/svg" viewBox="0 0 820 820" width="820" height="820"><g fill="none" stroke="#5C4030" stroke-width="7" stroke-linecap="round" stroke-linejoin="round"><g transform="translate(410 63) scale(1.0)"><path d="M -140 296 C -176 344, -184 396, -178 434" stroke-width="22"/><path d="M 140 296 C 176 344, 184 396, 178 434" stroke-width="22"/><path d="M -42 392 L -42 458" stroke-width="22"/><path d="M 42 392 L 42 458" stroke-width="22"/><path d="M 0 142 C -6 112, -6 90, -2 70" stroke-width="9"/><path d="M -4 76 C -52 58, -120 92, -132 148 C -88 156, -32 118, -4 76 Z" fill="#A8C8B4"/><path d="M -2 70 C 52 52, 126 88, 140 144 C 94 154, 34 112, -2 70 Z" fill="#A8C8B4"/><ellipse cx="0" cy="282" rx="150" ry="158" fill="#FFF8F0"/><path d="M -88 254 L -32 232"/><path d="M 88 254 L 32 232"/><circle cx="-50" cy="278" r="19" fill="#5C4030" stroke="none"/><circle cx="50" cy="278" r="19" fill="#5C4030" stroke="none"/><circle cx="-44" cy="272" r="6" fill="#FFF8F0" stroke="none"/><circle cx="56" cy="272" r="6" fill="#FFF8F0" stroke="none"/><path d="M -68 300 C -76 314, -74 326, -64 328" stroke-width="5"/><path d="M -18 338 L 18 338"/></g></g></svg>