<svg xmlns="http://www.w3.org/2000/svg" viewBox="0 0 820 620" width="820" height="620"><g fill="none" stroke="#5C4030" stroke-width="7" stroke-linecap="round" stroke-linejoin="round"><g transform="translate(410 40)"><path d="M -110 312 C -152 330, -186 344, -204 362" stroke-width="22"/><path d="M 110 312 C 152 330, 186 344, 204 362" stroke-width="22"/><path d="M -42 392 L -42 458" stroke-width="22"/><path d="M 42 392 L 42 458" stroke-width="22"/><path d="M 0 142 C -6 112, -6 90, -2 70" stroke-width="9"/><path d="M -4 74 C -66 10, -142 8, -166 50 C -128 98, -48 100, -4 74 Z" fill="#A8C8B4"/><path d="M -2 68 C 66 0, 150 -4, 176 40 C 132 92, 42 96, -2 68 Z" fill="#A8C8B4"/><ellipse cx="0" cy="282" rx="150" ry="158" fill="#FFF8F0"/><ellipse cx="-94" cy="320" rx="27" ry="15" fill="#F4A896" stroke="none"/><ellipse cx="94" cy="320" rx="27" ry="15" fill="#F4A896" stroke="none"/><path d="M -84 228 C -70 216, -46 216, -32 226"/><path d="M 84 228 C 70 216, 46 216, 32 226"/><path d="M -72 288 C -62 270, -38 270, -28 288"/><path d="M 28 288 C 38 270, 62 270, 72 288"/><path d="M -36 328 C -30 360, 30 360, 36 328 Z" fill="#5C4030" stroke="none"/></g></g></svg>