<svg xmlns="http://www.w3.org/2000/svg" viewBox="0 0 820 820" width="820" height="820"><g fill="none" stroke="#5C4030" stroke-width="7" stroke-linecap="round" stroke-linejoin="round"><g transform="translate(410 63) scale(1.0)"><path d="M -42 392 L -42 458" stroke-width="22"/><path d="M 42 392 L 42 458" stroke-width="22"/><path d="M 0 142 C -6 112, -6 90, -2 70" stroke-width="9"/><path d="M -4 76 C -52 58, -120 92, -132 148 C -88 156, -32 118, -4 76 Z" fill="#A8C8B4"/><path d="M -2 70 C 52 52, 126 88, 140 144 C 94 154, 34 112, -2 70 Z" fill="#A8C8B4"/><ellipse cx="0" cy="282" rx="150" ry="158" fill="#FFF8F0"/><path d="M -74 276 L -26 276"/><path d="M -70 286 C -58 296, -42 296, -30 286"/><path d="M 74 276 L 26 276"/><path d="M 70 286 C 58 296, 42 296, 30 286"/><path d="M -26 338 C -16 328, -8 348, 0 338 C 8 328, 16 348, 26 338"/><path d="M -52 344 C -52 306, 52 306, 52 344 L 52 400 C 52 424, -52 424, -52 400 Z" fill="#FFF8F0"/><path d="M -34 344 L 34 344"/><path d="M -128 336 C -116 372, -84 396, -46 402" stroke-width="22"/><path d="M 128 336 C 116 372, 84 396, 46 402" stroke-width="22"/><path d="M 150 196 C 136 216, 136 234, 152 234 C 168 234, 168 216, 150 196 Z" fill="#FFF8F0"/></g></g></svg>